<?xml version="1.0" encoding="UTF-8"?><svg id="Layer_1" xmlns="http://www.w3.org/2000/svg" viewBox="0 0 288 288"><defs><style>.cls-1{fill:#ffd128;}</style></defs><path d="M175.62,166.33l-15.01.02-31.15-44.29,46.51-.19c15.16-.06,27.05-12.13,27.66-26.66.62-14.6-10.68-28.83-26.17-28.87l-84.82-.21-31.14-44.33,113.58-.2c28.96-.05,54.68,16.81,66.26,41.84,12.76,27.57,7.18,58.86-13.43,80.71,29.41,30.58,26.14,79.05-5.94,105.61l-25.76-36.57c7.69-8.62,9.61-20.01,4.98-30.47-4.23-9.57-13.98-16.42-25.57-16.41Z"/><path class="cls-1" d="M207.43,259.11c-7.95,3.97-16.25,5.86-25.7,7.28l-141.76-.05.1-215.65c0-7.6,1-14.77.26-22.21-.21-2.09-1.3-4.24.8-5.55l43.03,61.13.08,49.42.36,88.64,96.75-.04,26.08,37.03Z"/></svg>