<?xml version="1.0" encoding="UTF-8"?>
<svg id="Layer_2" xmlns="http://www.w3.org/2000/svg" version="1.1" viewBox="0 0 251.7 145.4">
  <!-- Generator: Adobe Illustrator 30.2.1, SVG Export Plug-In . SVG Version: 2.1.1 Build 1)  -->
  <defs>
    <style>
      .st0 {
        fill: #ffd128;
      }

      .st1 {
        isolation: isolate;
      }

      .st2 {
        fill: #fff;
      }
    </style>
  </defs>
  <rect width="251.7" height="145.4"/>
  <path class="st2" d="M39.3,80.7h-3.3l-6.8-9.7h10.2c3.3,0,5.9-2.7,6.1-5.9s-2.3-6.3-5.7-6.3h-18.6s-6.8-9.8-6.8-9.8h24.9c6.3,0,12,3.6,14.5,9.1,2.8,6,1.6,12.9-2.9,17.7,6.4,6.7,5.7,17.3-1.3,23.1l-5.6-8c1.7-1.9,2.1-4.4,1.1-6.7-.9-2.1-3.1-3.6-5.6-3.6h0Z"/>
  <path class="st0" d="M46.2,101c-1.7.9-3.6,1.3-5.6,1.6H9.6v-47.7c0-.2,0-.5,0-.9,0-.8,0-.9,0-1.1,0-1.3.3-1.5.3-2.4s0-.7-.1-1.2l9.4,13.4v10.8s.1,19.4.1,19.4h21.2l5.7,8.1h0Z"/>
  <polygon class="st0" points="10.2 49.8 9.8 49.3 9.6 55 10.2 49.8"/>
  <g class="st1">
    <g class="st1">
      <path class="st2" d="M82.4,72.8v2.1c-1-.9-2.1-1.3-3.2-1.3s-2.2.4-3,1.3c-.8.9-1.2,1.9-1.2,3.2s.4,2.3,1.2,3.1,1.9,1.3,3.1,1.3,1.2-.1,1.6-.3c.2-.1.5-.2.8-.4.3-.2.5-.4.8-.6v2.1c-1,.6-2.1.9-3.2.9-1.7,0-3.1-.6-4.3-1.8-1.2-1.2-1.8-2.6-1.8-4.3s.5-2.8,1.5-4c1.2-1.4,2.8-2.2,4.7-2.2s2.1.3,3.1.9Z"/>
      <path class="st2" d="M86.4,76.5v4.2c0,1.2.5,1.8,1.5,1.8s1.5-.6,1.5-1.8v-4.2h1.7v4.3c0,.6,0,1.1-.2,1.5-.1.4-.4.7-.7,1-.6.5-1.3.8-2.2.8s-1.6-.3-2.2-.8c-.4-.3-.6-.7-.8-1-.1-.3-.2-.9-.2-1.5v-4.3h1.7Z"/>
      <path class="st2" d="M98,77.8l-1.4.8c-.2-.5-.5-.7-.8-.7s-.3,0-.4.2c-.1.1-.2.2-.2.4,0,.3.3.6,1,.8.9.4,1.5.8,1.8,1.1.3.3.5.8.5,1.3s-.3,1.3-.8,1.8c-.5.5-1.1.7-1.9.7-1.2,0-2.1-.6-2.6-1.8l1.5-.7c.2.4.4.6.5.7.2.2.5.3.7.3.6,0,.9-.3.9-.8s-.2-.6-.7-.9c-.2,0-.3-.2-.5-.3s-.3-.2-.5-.3c-.5-.2-.8-.5-1-.7-.3-.3-.4-.7-.4-1.2s.2-1.2.7-1.6c.5-.4,1-.6,1.6-.6.9,0,1.7.5,2.1,1.5Z"/>
    </g>
    <g class="st1">
      <path class="st2" d="M102.2,78.1v5.8h-1.7v-5.8h-.7v-1.6h.7v-2.7h1.7v2.7h1.3v1.6h-1.3Z"/>
    </g>
    <g class="st1">
      <path class="st2" d="M105,80.1c0-1.1.4-2,1.1-2.7.8-.8,1.7-1.1,2.8-1.1s2,.4,2.8,1.1c.8.8,1.1,1.7,1.1,2.8s-.4,2-1.1,2.8c-.8.7-1.7,1.1-2.8,1.1s-2-.4-2.8-1.1c-.8-.8-1.1-1.7-1.1-2.8ZM106.7,80.2c0,.7.2,1.3.6,1.8.4.4.9.7,1.6.7s1.2-.2,1.6-.6c.4-.4.6-1,.6-1.7s-.2-1.3-.6-1.7c-.4-.4-.9-.7-1.6-.7s-1.2.2-1.6.7c-.4.4-.6,1-.6,1.7Z"/>
      <path class="st2" d="M115.1,76.5h1.7v.7c.3-.3.6-.6.8-.7.2-.1.6-.2.9-.2.8,0,1.5.4,2,1.1.5-.7,1.3-1.1,2.2-1.1,1.7,0,2.5,1,2.5,3v4.6h-1.7v-4.1c0-.7,0-1.2-.3-1.5-.2-.3-.5-.4-.9-.4s-.8.2-1,.5c-.2.4-.3.9-.3,1.7v3.8h-1.7v-4.1c0-1.3-.4-2-1.1-2s-.8.2-1.1.5c-.2.4-.3.9-.3,1.7v3.8h-1.7v-7.4Z"/>
    </g>
    <g class="st1">
      <path class="st2" d="M134.1,72.2l3.1,7.8,3.2-8.4,3.1,8.4,3.2-7.8h1.9l-5.2,12.5-3-8.3-3.1,8.3-5-12.5h1.9Z"/>
    </g>
    <g class="st1">
      <path class="st2" d="M156,80.6h-5.3c0,.6.2,1.1.6,1.5.3.4.8.5,1.3.5s.8-.1,1.1-.3c.3-.2.6-.6.9-1.1l1.4.8c-.2.4-.5.7-.7,1-.2.3-.5.5-.8.7s-.6.3-.9.4-.7.1-1.1.1c-1.1,0-2-.4-2.7-1.1-.7-.7-1-1.7-1-2.8s.3-2.1,1-2.8c.7-.7,1.5-1.1,2.6-1.1s2,.3,2.6,1c.6.7.9,1.6.9,2.9v.4ZM154.3,79.2c-.2-.9-.8-1.4-1.7-1.4s-.4,0-.6,0c-.2,0-.3.2-.5.3-.2.1-.3.3-.4.4s-.2.4-.2.6h3.4Z"/>
      <path class="st2" d="M160.1,71.1v6.3c.7-.7,1.5-1.1,2.3-1.1s1.8.4,2.5,1.1c.7.7,1,1.7,1,2.8s-.3,2.1-1,2.8c-.7.7-1.5,1.1-2.5,1.1s-1.6-.3-2.3-1v.8h-1.7v-12.8h1.7ZM164.1,80.3c0-.7-.2-1.3-.6-1.7-.4-.5-.9-.7-1.5-.7s-1.1.2-1.5.7c-.4.4-.6,1-.6,1.7s.2,1.3.6,1.7c.4.4.9.7,1.5.7s1.1-.2,1.5-.7c.4-.4.6-1,.6-1.7Z"/>
      <path class="st2" d="M172.5,77.8l-1.4.8c-.2-.5-.5-.7-.8-.7s-.3,0-.4.2c-.1.1-.2.2-.2.4,0,.3.3.6,1,.8.9.4,1.5.8,1.8,1.1.3.3.5.8.5,1.3s-.3,1.3-.8,1.8c-.5.5-1.1.7-1.9.7-1.2,0-2.1-.6-2.6-1.8l1.5-.7c.2.4.4.6.5.7.2.2.5.3.7.3.6,0,.9-.3.9-.8s-.2-.6-.7-.9c-.2,0-.3-.2-.5-.3-.2,0-.3-.2-.5-.3-.5-.2-.8-.5-1-.7-.3-.3-.4-.7-.4-1.2s.2-1.2.7-1.6c.5-.4,1-.6,1.6-.6.9,0,1.7.5,2.1,1.5Z"/>
      <path class="st2" d="M174.7,73.4c0-.3.1-.6.3-.8.2-.2.5-.3.8-.3s.6.1.8.3c.2.2.3.5.3.8s-.1.6-.3.8c-.2.2-.5.3-.8.3s-.6-.1-.8-.3-.3-.5-.3-.8ZM176.6,76.5v7.4h-1.7v-7.4h1.7Z"/>
    </g>
    <g class="st1">
      <path class="st2" d="M181.1,78.1v5.8h-1.7v-5.8h-.7v-1.6h.7v-2.7h1.7v2.7h1.3v1.6h-1.3Z"/>
    </g>
    <g class="st1">
      <path class="st2" d="M190.9,80.6h-5.3c0,.6.2,1.1.6,1.5.3.4.8.5,1.3.5s.8-.1,1.1-.3c.3-.2.6-.6.9-1.1l1.4.8c-.2.4-.5.7-.7,1-.2.3-.5.5-.8.7s-.6.3-.9.4-.7.1-1.1.1c-1.1,0-2-.4-2.7-1.1-.7-.7-1-1.7-1-2.8s.3-2.1,1-2.8c.7-.7,1.5-1.1,2.6-1.1s2,.3,2.6,1c.6.7.9,1.6.9,2.9v.4ZM189.1,79.2c-.2-.9-.8-1.4-1.7-1.4s-.4,0-.6,0c-.2,0-.3.2-.5.3-.2.1-.3.3-.4.4s-.2.4-.2.6h3.4Z"/>
      <path class="st2" d="M197.5,77.8l-1.4.8c-.2-.5-.5-.7-.8-.7s-.3,0-.4.2c-.1.1-.2.2-.2.4,0,.3.3.6,1,.8.9.4,1.5.8,1.8,1.1.3.3.5.8.5,1.3s-.3,1.3-.8,1.8c-.5.5-1.1.7-1.9.7-1.2,0-2.1-.6-2.6-1.8l1.5-.7c.2.4.4.6.5.7.2.2.5.3.7.3.6,0,.9-.3.9-.8s-.2-.6-.7-.9c-.2,0-.3-.2-.5-.3-.2,0-.3-.2-.5-.3-.5-.2-.8-.5-1-.7-.3-.3-.4-.7-.4-1.2s.2-1.2.7-1.6c.5-.4,1-.6,1.6-.6.9,0,1.7.5,2.1,1.5Z"/>
    </g>
    <g class="st1">
      <path class="st2" d="M73.7,102.6v-11.7h1.8c.8,0,1.4,0,1.9.2.5.1.9.3,1.2.6.3.3.6.7.8,1.1.2.5.3.9.3,1.4,0,.8-.3,1.6-1,2.1.6.2,1.1.6,1.5,1.1.4.5.5,1.1.5,1.8s-.3,1.7-1,2.3c-.4.4-.8.7-1.3.8-.5.1-1.2.2-2,.2h-2.7ZM75.4,95.9h.6c.7,0,1.1-.1,1.4-.4.3-.3.5-.7.5-1.3s-.2-1-.5-1.3c-.3-.3-.8-.4-1.4-.4h-.6v3.4ZM75.4,100.9h1.1c.8,0,1.4-.2,1.8-.5.4-.3.6-.8.6-1.3s-.2-.9-.6-1.3c-.4-.3-1-.5-2-.5h-.9v3.6Z"/>
      <path class="st2" d="M84.7,95.2v4.2c0,1.2.5,1.8,1.5,1.8s1.5-.6,1.5-1.8v-4.2h1.7v4.3c0,.6,0,1.1-.2,1.5-.1.4-.4.7-.7,1-.6.5-1.3.8-2.2.8s-1.6-.3-2.2-.8c-.4-.3-.6-.7-.8-1-.1-.3-.2-.9-.2-1.5v-4.3h1.7Z"/>
      <path class="st2" d="M91.7,92.1c0-.3.1-.6.3-.8.2-.2.5-.3.8-.3s.6.1.8.3c.2.2.3.5.3.8s-.1.6-.3.8c-.2.2-.5.3-.8.3s-.6-.1-.8-.3-.3-.5-.3-.8ZM93.7,95.2v7.4h-1.7v-7.4h1.7Z"/>
      <path class="st2" d="M98,89.7v12.8h-1.7v-12.8h1.7Z"/>
      <path class="st2" d="M102.4,96.8v5.8h-1.7v-5.8h-.7v-1.6h.7v-2.7h1.7v2.7h1.3v1.6h-1.3Z"/>
    </g>
    <g class="st1">
      <path class="st2" d="M114.2,92.5v10.1h-1.8v-10.1h-2.7v-1.7h7.2v1.7h-2.7Z"/>
    </g>
    <g class="st1">
      <path class="st2" d="M117.6,98.8c0-1.1.4-2,1.1-2.7.8-.8,1.7-1.1,2.8-1.1s2,.4,2.8,1.1c.8.8,1.1,1.7,1.1,2.8s-.4,2-1.1,2.8c-.8.7-1.7,1.1-2.8,1.1s-2-.4-2.8-1.1c-.8-.8-1.1-1.7-1.1-2.8ZM119.3,98.9c0,.7.2,1.3.6,1.8.4.4.9.7,1.6.7s1.2-.2,1.6-.6c.4-.4.6-1,.6-1.7s-.2-1.3-.6-1.7c-.4-.4-.9-.7-1.6-.7s-1.2.2-1.6.7c-.4.4-.6,1-.6,1.7Z"/>
      <path class="st2" d="M135.1,90.9v10.1h3.5v1.7h-5.2v-11.7h1.8Z"/>
      <path class="st2" d="M145.9,95.2h1.7v7.4h-1.7v-.8c-.7.7-1.5,1-2.3,1s-1.9-.4-2.5-1.1c-.7-.8-1-1.7-1-2.8s.3-2,1-2.8,1.5-1.1,2.5-1.1,1.6.4,2.3,1.1v-.9ZM141.8,98.9c0,.7.2,1.3.6,1.7.4.5.9.7,1.5.7s1.1-.2,1.5-.7c.4-.5.6-1,.6-1.7s-.2-1.3-.6-1.7c-.4-.4-.9-.7-1.5-.7s-1.1.2-1.5.7c-.4.5-.6,1-.6,1.7Z"/>
      <path class="st2" d="M154.5,96.4l-1.4.8c-.2-.5-.5-.7-.8-.7s-.3,0-.4.2c-.1.1-.2.2-.2.4,0,.3.3.6,1,.8.9.4,1.5.8,1.8,1.1.3.3.5.8.5,1.3s-.3,1.3-.8,1.8c-.5.5-1.1.7-1.9.7-1.2,0-2.1-.6-2.6-1.8l1.5-.7c.2.4.4.6.5.7.2.2.5.3.7.3.6,0,.9-.3.9-.8s-.2-.6-.7-.9c-.2,0-.3-.2-.5-.3-.2,0-.3-.2-.5-.3-.5-.2-.8-.5-1-.7-.3-.3-.4-.7-.4-1.2s.2-1.2.7-1.6c.5-.4,1-.6,1.6-.6.9,0,1.7.5,2.1,1.5Z"/>
      <path class="st2" d="M158.8,96.8v5.8h-1.7v-5.8h-.7v-1.6h.7v-2.7h1.7v2.7h1.3v1.6h-1.3Z"/>
    </g>
  </g>
  <g class="st1">
    <g class="st1">
      <path class="st0" d="M73.3,49.2h6.7c1.6,0,2.8.4,3.6,1.2.8.8,1.2,1.9,1.2,3.3s-.2,1.6-.5,2.2c-.3.6-.8,1.1-1.4,1.5.6.1,1.2.3,1.6.6.5.3.8.6,1.1.9.3.4.5.8.6,1.2s.2,1,.2,1.5c0,.8-.1,1.5-.4,2.2-.3.6-.7,1.2-1.2,1.6-.5.4-1.1.8-1.9,1-.7.2-1.6.3-2.5.3h-7.3v-17.4ZM77.8,56h.8c1.4,0,2.1-.6,2.1-1.7s-.7-1.7-2.1-1.7h-.8v3.4ZM77.8,63.1h1c1.1,0,2-.1,2.4-.4.5-.3.7-.8.7-1.4s-.2-1.1-.7-1.4c-.5-.3-1.3-.4-2.4-.4h-1v3.7Z"/>
    </g>
    <g class="st1">
      <path class="st0" d="M89.1,54.8h4.2v1.9c.4-.7,1-1.2,1.6-1.6.6-.4,1.4-.6,2.3-.6h.4c.1,0,.3,0,.4,0v4c-.6-.3-1.2-.4-1.8-.4-1,0-1.7.3-2.2.9s-.7,1.4-.7,2.5v5.1h-4.2v-11.8Z"/>
    </g>
    <g class="st1">
      <path class="st0" d="M109.3,54.8h4.2v11.8h-4.2v-1.3c-.9,1.1-2.1,1.7-3.6,1.7s-1.7-.2-2.4-.5c-.7-.3-1.4-.8-1.9-1.3-.5-.6-1-1.2-1.3-2-.3-.8-.4-1.6-.4-2.5s.1-1.6.4-2.4c.3-.8.7-1.4,1.2-2,.5-.6,1.1-1,1.9-1.3.7-.3,1.5-.5,2.4-.5,1.5,0,2.7.5,3.7,1.5v-1.2ZM104.1,60.6c0,.4,0,.7.2,1.1.1.3.3.6.6.9.2.2.5.4.9.6.3.1.7.2,1.1.2s.7,0,1-.2c.3-.1.6-.3.9-.6.2-.2.4-.5.6-.9.1-.3.2-.7.2-1s0-.7-.2-1c-.1-.3-.3-.6-.6-.9-.2-.2-.5-.4-.9-.6-.3-.1-.7-.2-1-.2s-.7,0-1.1.2c-.3.1-.6.3-.9.6-.2.2-.4.5-.6.8-.1.3-.2.7-.2,1Z"/>
      <path class="st0" d="M116.6,54.8h4.2v1.5c.6-.7,1.1-1.2,1.7-1.4.6-.2,1.3-.4,2.1-.4s1.5.1,2.1.4c.6.3,1.1.6,1.5,1.1.3.4.6.8.7,1.3.1.5.2,1.1.2,1.7v7.5h-4.2v-6c0-.6,0-1.1-.1-1.4,0-.4-.2-.6-.4-.9-.2-.2-.4-.3-.6-.4s-.5-.1-.7-.1c-.7,0-1.2.2-1.6.6-.4.4-.6,1-.6,1.8v6.3h-4.2v-11.8Z"/>
      <path class="st0" d="M141.3,47.4h4.2v19.1h-4.2v-1.3c-.9,1.1-2.1,1.7-3.6,1.7s-1.7-.2-2.4-.5c-.7-.3-1.4-.8-1.9-1.3s-1-1.2-1.3-2-.4-1.6-.4-2.5.1-1.6.4-2.4.7-1.4,1.2-2,1.1-1,1.9-1.3c.7-.3,1.5-.5,2.4-.5,1.5,0,2.7.5,3.7,1.5v-8.5ZM136,60.6c0,.4,0,.7.2,1.1.1.3.3.6.6.9.2.2.5.4.9.6.3.1.7.2,1.1.2s.7,0,1-.2c.3-.1.6-.3.9-.6.2-.2.4-.5.6-.9.1-.3.2-.7.2-1s0-.7-.2-1c-.1-.3-.3-.6-.6-.9-.2-.2-.5-.4-.9-.6-.3-.1-.7-.2-1-.2s-.7,0-1,.2c-.3.1-.6.3-.9.6-.2.2-.4.5-.6.8-.1.3-.2.7-.2,1Z"/>
      <path class="st0" d="M148,60.6c0-.9.2-1.7.5-2.5s.8-1.4,1.5-2c.6-.6,1.4-1,2.2-1.3.9-.3,1.8-.5,2.8-.5s2,.2,2.8.5c.9.3,1.6.8,2.3,1.3.6.6,1.1,1.2,1.5,2s.5,1.6.5,2.6-.2,1.8-.5,2.6c-.4.8-.9,1.4-1.5,2-.6.6-1.4,1-2.3,1.3-.9.3-1.8.5-2.9.5s-2-.2-2.8-.5c-.9-.3-1.6-.7-2.2-1.3-.6-.6-1.1-1.2-1.5-2-.4-.8-.5-1.7-.5-2.6ZM152.5,60.6c0,.4,0,.8.2,1.1.1.3.3.6.6.9.2.2.5.4.9.6.3.1.7.2,1,.2s.7,0,1-.2c.3-.1.6-.3.9-.6.2-.2.4-.5.6-.9s.2-.7.2-1.1,0-.7-.2-1c-.1-.3-.3-.6-.6-.9-.2-.2-.5-.4-.9-.6-.3-.1-.7-.2-1-.2s-.7,0-1,.2c-.3.1-.6.3-.9.6-.2.2-.4.5-.6.9-.1.3-.2.7-.2,1Z"/>
      <path class="st0" d="M164.9,54.8h4.2v1.5c.6-.7,1.1-1.2,1.7-1.4.6-.2,1.3-.4,2.1-.4s1.5.1,2.1.4c.6.3,1.1.6,1.5,1.1.3.4.6.8.7,1.3.1.5.2,1.1.2,1.7v7.5h-4.2v-6c0-.6,0-1.1-.1-1.4,0-.4-.2-.6-.4-.9-.2-.2-.4-.3-.6-.4s-.5-.1-.7-.1c-.7,0-1.2.2-1.6.6-.4.4-.6,1-.6,1.8v6.3h-4.2v-11.8Z"/>
    </g>
    <g class="st1">
      <path class="st0" d="M193.4,49.2v13.6h5.4v3.8h-9.9v-17.4h4.5Z"/>
    </g>
    <g class="st1">
      <path class="st0" d="M205.2,54.8v6.7c0,1.5.7,2.2,2.1,2.2s2.1-.7,2.1-2.2v-6.7h4.2v7.5c0,1.6-.5,2.8-1.6,3.6s-2.6,1.2-4.7,1.2-3.7-.4-4.7-1.2-1.6-2-1.6-3.6v-7.5h4.2ZM202.1,50.7c0-.3,0-.6.2-.9.1-.3.3-.5.5-.7s.4-.4.7-.5.6-.2.9-.2.6,0,.9.2.5.3.7.5c.2.2.4.4.5.7s.2.6.2.9c0,.6-.2,1.2-.6,1.6-.4.4-1,.7-1.6.7s-1.2-.2-1.6-.7c-.4-.4-.6-1-.6-1.6ZM208,50.7c0-.3,0-.6.2-.9s.3-.5.5-.7c.2-.2.4-.4.7-.5.3-.1.6-.2.9-.2s.6,0,.9.2c.3.1.5.3.7.5.2.2.4.4.5.7s.2.6.2.9,0,.6-.2.9-.3.5-.5.7-.4.4-.7.5c-.3.1-.6.2-.9.2s-.6,0-.9-.2c-.3-.1-.5-.3-.7-.5s-.4-.4-.5-.7c-.1-.3-.2-.6-.2-.9Z"/>
    </g>
    <g class="st1">
      <path class="st0" d="M221.3,58.2v8.3h-4.2v-8.3h-1.4v-3.5h1.4v-3.5h4.2v3.5h2.4v3.5h-2.4Z"/>
    </g>
    <g class="st1">
      <path class="st0" d="M230.7,58.2v8.3h-4.2v-8.3h-1.4v-3.5h1.4v-3.5h4.2v3.5h2.4v3.5h-2.4Z"/>
    </g>
    <g class="st1">
      <path class="st0" d="M242.9,57.8c-.8-.4-1.5-.6-2.3-.6s-.7,0-.9.2c-.2.2-.4.4-.4.6s0,.2,0,.3c0,0,.1.2.3.2.1,0,.3.1.6.2.3,0,.6.1,1,.2,1.2.2,2,.6,2.6,1.2.6.6.9,1.3.9,2.3s-.1,1.3-.4,1.9c-.3.6-.7,1-1.2,1.4-.5.4-1.1.7-1.8.9-.7.2-1.5.3-2.3.3-1.6,0-3.2-.5-4.7-1.4l1.5-3c1.2.8,2.3,1.2,3.3,1.2s.7,0,.9-.3c.2-.2.4-.4.4-.6s0-.3,0-.4c0,0-.1-.2-.2-.3-.1,0-.3-.2-.5-.2s-.5-.1-.9-.2c-1.3-.3-2.2-.6-2.7-1.2-.5-.5-.8-1.2-.8-2.1s.1-1.3.4-1.8c.2-.5.6-1,1.1-1.3.5-.4,1-.7,1.7-.9.7-.2,1.4-.3,2.2-.3,1.3,0,2.6.3,3.8.8l-1.4,2.7Z"/>
    </g>
  </g>
</svg>