<?xml version="1.0" encoding="UTF-8"?><svg id="Layer_2" xmlns="http://www.w3.org/2000/svg" viewBox="0 0 107.87 107.92"><defs><style>.cls-1{fill:#ffd128;}.cls-2{fill:#fff;}</style></defs><g id="Layer_1-2"><rect width="107.87" height="107.92"/><path class="cls-2" d="M62.09,58.85h-3.29s-6.82-9.7-6.82-9.7l10.19-.04c3.32-.01,5.92-2.66,6.06-5.84.14-3.2-2.34-6.31-5.73-6.32l-18.58-.05-6.82-9.71,24.88-.04c6.34-.01,11.98,3.68,14.51,9.16,2.79,6.04,1.57,12.89-2.94,17.68,6.44,6.7,5.73,17.31-1.3,23.13l-5.64-8.01c1.68-1.89,2.1-4.38,1.09-6.67-.93-2.1-3.06-3.6-5.6-3.59Z"/><path class="cls-1" d="M69.06,79.17c-1.74.87-3.56,1.28-5.63,1.59h-31.05c0-15.9,0-31.79,0-47.68.01-.2.03-.51.05-.89.04-.8.04-.9.06-1.12.08-1.33.26-1.52.26-2.43,0-.27-.02-.69-.11-1.2l9.42,13.39.02,10.82.08,19.41h21.19s5.71,8.1,5.71,8.1Z"/><polygon class="cls-1" points="33.03 27.99 32.64 27.44 32.39 33.21 33.03 27.99"/></g></svg>