<?xml version="1.0" encoding="UTF-8"?><svg id="Layer_2" xmlns="http://www.w3.org/2000/svg" viewBox="0 0 235.76 60.72"><defs><style>.cls-1,.cls-2{fill:#ffd128;}.cls-3,.cls-4{fill:#fff;}.cls-4{font-family:Futura-Medium, Futura;font-size:15.57px;font-weight:500;}.cls-2{font-family:Futura-Bold, Futura;font-size:23.05px;font-weight:700;}.cls-5{letter-spacing:-.01em;}.cls-6{letter-spacing:-.03em;}.cls-7{letter-spacing:.01em;}.cls-8{letter-spacing:.02em;}.cls-9{letter-spacing:.04em;}.cls-10{letter-spacing:.03em;}.cls-11{letter-spacing:.03em;}.cls-12{letter-spacing:.03em;}.cls-13{letter-spacing:.04em;}.cls-14{letter-spacing:.04em;}.cls-15{letter-spacing:.01em;}.cls-16{letter-spacing:.01em;}.cls-17{letter-spacing:.01em;}.cls-18{letter-spacing:.01em;}</style></defs><g id="Layer_1-2"><path class="cls-3" d="M29.71,34.33h-3.29s-6.82-9.7-6.82-9.7l10.19-.04c3.32-.01,5.92-2.66,6.06-5.84s-2.34-6.31-5.73-6.32l-18.58-.05L4.71,2.68l24.88-.04c6.34-.01,11.98,3.68,14.51,9.16,2.79,6.04,1.57,12.89-2.94,17.68,6.44,6.7,5.73,17.31-1.3,23.13l-5.64-8.01c1.68-1.89,2.1-4.38,1.09-6.67-.93-2.1-3.06-3.6-5.6-3.59Z"/><path class="cls-1" d="M36.68,54.65c-1.74.87-3.56,1.28-5.63,1.59H0c0-15.9,0-31.79,0-47.68.01-.2.03-.51.05-.89.04-.8.04-.9.06-1.12.08-1.33.26-1.52.26-2.43,0-.27-.02-.69-.11-1.2l9.42,13.39.02,10.82.08,19.41h21.19s5.71,8.1,5.71,8.1Z"/><polygon class="cls-1" points=".65 3.47 .25 2.93 0 8.69 .65 3.47"/><text class="cls-4" transform="translate(62.71 37.54)"><tspan class="cls-11" x="0" y="0">Cus</tspan><tspan class="cls-13" x="27.12" y="0">t</tspan><tspan class="cls-11" x="31.95" y="0">om </tspan><tspan class="cls-6" x="59.84" y="0">W</tspan><tspan class="cls-10" x="75.92" y="0">ebsi</tspan><tspan class="cls-14" x="105.94" y="0">t</tspan><tspan class="cls-12" x="110.81" y="0">es</tspan><tspan class="cls-11" x="0" y="18.69">Built </tspan><tspan class="cls-5" x="37.32" y="18.69">T</tspan><tspan class="cls-10" x="44.6" y="18.69">o Last</tspan></text><text class="cls-2" transform="translate(61.93 20.21)"><tspan class="cls-18" x="0" y="0">B</tspan><tspan class="cls-8" x="16.18" y="0">r</tspan><tspan class="cls-16" x="27.28" y="0">andon </tspan><tspan class="cls-15" x="115.55" y="0">L</tspan><tspan class="cls-18" x="128.06" y="0">ü</tspan><tspan class="cls-9" x="143.71" y="0">t</tspan><tspan class="cls-7" x="153.16" y="0">t</tspan><tspan class="cls-17" x="162.1" y="0">s</tspan></text></g></svg>